<?xml version="1.0" encoding="UTF-8"?>
<!DOCTYPE svg PUBLIC "-//W3C//DTD SVG 1.1//EN" "http://www.w3.org/Graphics/SVG/1.1/DTD/svg11.dtd">
<!-- Creator: CorelDRAW 2017 -->
<svg xmlns="http://www.w3.org/2000/svg" xml:space="preserve" width="31.5439mm" height="3.5149mm" version="1.1" style="shape-rendering:geometricPrecision; text-rendering:geometricPrecision; image-rendering:optimizeQuality; fill-rule:evenodd; clip-rule:evenodd"
viewBox="0 0 1597 178"
 xmlns:xlink="http://www.w3.org/1999/xlink">
 <defs>
  <style type="text/css">
   <![CDATA[
    .fil4 {fill:#FEFEFE;fill-rule:nonzero}
    .fil3 {fill:#FEFEFE;fill-rule:nonzero}
    .fil5 {fill:#FEFEFE;fill-rule:nonzero;fill-opacity:0.901961}
    .fil0 {fill:url(#id0);fill-rule:nonzero}
    .fil2 {fill:url(#id1);fill-rule:nonzero}
    .fil1 {fill:url(#id2);fill-rule:nonzero}
   ]]>
  </style>
  <linearGradient id="id0" gradientUnits="userSpaceOnUse" x1="234" y1="84" x2="1" y2="84">
   <stop offset="0" style="stop-opacity:1; stop-color:#878688"/>
   <stop offset="0.341176" style="stop-opacity:1; stop-color:#BDBDBF"/>
   <stop offset="1" style="stop-opacity:1; stop-color:#F4F5F7"/>
  </linearGradient>
  <linearGradient id="id1" gradientUnits="userSpaceOnUse" x1="234" y1="12" x2="1" y2="12">
   <stop offset="0" style="stop-opacity:1; stop-color:#878688"/>
   <stop offset="0.568627" style="stop-opacity:1; stop-color:#F0F1F3"/>
   <stop offset="0.760784" style="stop-opacity:1; stop-color:#F0F1F3"/>
   <stop offset="0.921569" style="stop-opacity:1; stop-color:#F4F5F7"/>
   <stop offset="1" style="stop-opacity:1; stop-color:#F4F5F7"/>
  </linearGradient>
  <linearGradient id="id2" gradientUnits="userSpaceOnUse" x1="41" y1="37" x2="79" y2="138">
   <stop offset="0" style="stop-opacity:1; stop-color:#A5A5A5"/>
   <stop offset="0.341176" style="stop-opacity:1; stop-color:#CCCDCE"/>
   <stop offset="1" style="stop-opacity:1; stop-color:#F4F5F7"/>
  </linearGradient>
 </defs>
 <g id="Capa_x0020_1">
  <metadata id="CorelCorpID_0Corel-Layer"/>
  <g id="_2488751344704">
   <path class="fil0" d="M1 0l233 0 -117 168 -117 -168zm46 24l0 0 70 101 70 -101 -141 0z"/>
   <polygon class="fil1" points="117,168 117,125 48,24 0,0 "/>
   <polygon class="fil2" points="18,24 47,24 47,24 188,24 188,24 217,24 234,0 1,0 "/>
  </g>
  <path class="fil3" d="M376 50c-10,-14 -22,-17 -36,-17 -16,0 -38,6 -37,27 0,18 18,22 36,25 16,3 32,6 32,21 0,17 -19,21 -31,21 -12,0 -28,-6 -34,-18l-7 3c8,15 25,21 40,21 16,0 39,-5 39,-28 0,-21 -20,-25 -39,-28 -17,-3 -30,-6 -30,-19 0,-16 18,-20 30,-20 11,0 23,2 30,13l6 -4z"/>
  <polygon id="1" class="fil3" points="420,133 428,133 428,93 466,34 466,34 457,34 424,86 391,34 382,34 382,34 420,93 "/>
  <path id="2" class="fil3" d="M550 50c-10,-14 -22,-17 -36,-17 -16,0 -38,6 -37,27 0,18 18,22 36,25 16,3 32,6 32,21 0,17 -19,21 -31,21 -12,0 -28,-6 -34,-18l-7 3c8,15 25,21 40,21 16,0 39,-5 39,-28 0,-21 -20,-25 -39,-28 -17,-3 -30,-6 -30,-19 0,-16 18,-20 30,-20 11,0 23,2 30,13l6 -4z"/>
  <polygon class="fil4" points="579,34 579,133 648,133 648,116 598,116 598,34 "/>
  <path id="1" class="fil4" d="M739 133l20 0 -44 -98 -20 0 -44 98 20 0 8 -19 51 0 8 19zm-16 -36l-37 0 18 -42 18 42z"/>
  <polygon id="2" class="fil4" points="895,34 874,34 852,105 827,34 815,34 791,105 768,34 747,34 783,133 799,133 811,102 821,71 832,102 844,133 860,133 "/>
  <path class="fil5" d="M1007 34l-7 0 0 116 7 0 0 -116zm101 30l0 69 7 0 0 -40c0,-13 10,-23 23,-23 4,0 8,1 12,3l3 -6c-5,-3 -10,-4 -15,-4 -9,0 -19,4 -23,13l0 -12 -6 0zm86 70c11,0 23,-4 30,-13l-5 -4c-5,7 -16,11 -25,11 -14,0 -27,-9 -28,-26l63 0c3,-27 -15,-39 -34,-39 -20,0 -35,15 -35,36 0,22 16,36 35,36zm-28 -38c2,-17 14,-27 28,-27 17,0 28,10 28,27l-56 0zm129 -27c-5,-4 -13,-6 -20,-6 -18,0 -33,12 -33,34 0,19 13,34 33,34 13,0 26,6 26,21 0,15 -12,21 -26,21 -14,0 -26,-7 -26,-21l-7 0c0,18 14,28 33,28 18,0 33,-9 33,-28 0,-12 -7,-21 -19,-25 12,-5 19,-17 19,-30 0,-11 -4,-18 -9,-24l7 -8 -4 -4 -7 8zm-20 1c14,0 26,9 26,27 0,14 -12,27 -26,27 -16,0 -26,-12 -26,-27 0,-18 12,-27 26,-27zm54 -6l0 70 -7 0 0 -70 7 0zm-9 -22c0,7 11,7 11,0 0,-7 -11,-7 -11,0zm80 31c-7,-6 -16,-9 -26,-9 -14,0 -28,6 -28,19 0,14 13,16 27,19 11,2 23,4 23,14 0,11 -13,13 -22,13 -9,0 -20,-4 -25,-12l-5 4c6,9 18,14 30,14 12,0 28,-4 29,-19 1,-16 -16,-18 -29,-20 -9,-2 -21,-3 -21,-13 0,-9 10,-13 21,-13 8,0 15,1 22,7l4 -4zm27 -28l0 20 -15 0 0 6 15 0 0 42c0,14 5,22 20,22 4,0 9,-1 13,-4l-2 -6c-4,2 -7,3 -11,3 -11,0 -13,-7 -13,-16l0 -42 24 0 0 -6 -24 0 0 -21 -7 1zm46 20l0 69 7 0 0 -40c0,-13 10,-23 23,-23 4,0 8,1 12,3l3 -6c-5,-3 -10,-4 -15,-4 -9,0 -19,4 -23,13l0 -12 -6 0zm87 70c20,0 35,-13 35,-36 0,-22 -16,-36 -35,-36 -20,0 -35,14 -35,36 0,22 16,36 35,36zm0 -7c-16,0 -29,-11 -29,-29 0,-18 13,-30 29,-30 16,0 29,12 29,30 0,18 -13,29 -29,29z"/>
 </g>
</svg>
